<?xml version="1.0" encoding="UTF-8" standalone="no"?>
<svg
   width="813"
   height="650"
   version="1.1"
   id="svg136"
   xmlns="http://www.w3.org/2000/svg"
   xmlns:svg="http://www.w3.org/2000/svg">
  <defs
     id="defs140" />
  <path
     style="fill:#f6f8fa;fill-opacity:1;fill-rule:evenodd"
     d="m 655.417,520 c 17.875,0 32.5,-14.625 32.5,-32.5 v -325 c 0,-17.875 -14.625,-32.5 -32.5,-32.5 -17.875,0 -32.5,14.625 -32.5,32.5 v 325 c 0,17.875 14.625,32.5 32.5,32.5 z"
     id="path3571" />
  <path
     style="fill:#f6f8fa;fill-opacity:1;fill-rule:evenodd"
     d="m 780,390 c 17.875,0 32.5,-14.625 32.5,-32.5 v -65 c 0,-17.875 -14.625,-32.5 -32.5,-32.5 -17.875,0 -32.5,14.625 -32.5,32.5 v 65 c 0,17.875 14.625,32.5 32.5,32.5 z"
     id="path3569" />
  <path
     style="fill:#f6f8fa;fill-opacity:1;fill-rule:evenodd"
     d="m 530.833,650 c 17.875,0 32.5,-14.625 32.5,-32.5 v -585 c 0,-17.875 -14.625,-32.5 -32.5,-32.5 -17.875,0 -32.5,14.625 -32.5,32.5 v 585 c 0,17.875 14.625,32.5 32.5,32.5 z"
     id="path3567" />
  <path
     style="fill:#f6f8fa;fill-opacity:1;fill-rule:evenodd"
     d="m 406.25,520 c 17.875,0 32.5,-14.625 32.5,-32.5 v -325 c 0,-17.875 -14.625,-32.5 -32.5,-32.5 -17.875,0 -32.5,14.625 -32.5,32.5 v 325 c 0,17.875 14.625,32.5 32.5,32.5 z"
     id="path3565" />
  <path
     style="fill:#f6f8fa;fill-opacity:1;fill-rule:evenodd"
     d="m 281.667,650 c 17.875,0 32.5,-14.625 32.5,-32.5 v -585 c 0,-17.875 -14.625,-32.5 -32.5,-32.5 -17.875,0 -32.5,14.625 -32.5,32.5 v 585 c 0,17.875 14.625,32.5 32.5,32.5 z"
     id="path3563" />
  <path
     style="fill:#f6f8fa;fill-opacity:1;fill-rule:evenodd"
     d="m 157.083,520 c 17.875,0 32.5,-14.625 32.5,-32.5 v -325 c 0,-17.875 -14.625,-32.5 -32.5,-32.5 -17.875,0 -32.5,14.625 -32.5,32.5 v 325 c 0,17.875 14.625,32.5 32.5,32.5 z"
     id="path3561" />
  <path
     style="fill:#f6f8fa;fill-opacity:1;fill-rule:evenodd"
     d="M 32.5,390 C 50.375,390 65,375.375 65,357.5 v -65 C 65,274.625 50.375,260 32.5,260 14.625,260 0,274.625 0,292.5 v 65 C 0,375.375 14.625,390 32.5,390 Z"
     id="path132" />
</svg>
